<svg id="weHealthcare_Logotype" data-name="weHealthcare Logotype" xmlns="http://www.w3.org/2000/svg" width="275.907" height="75" viewBox="0 0 275.907 75">
  <path id="Rectangle" d="M6.731,0H68.269A6.731,6.731,0,0,1,75,6.731V68.269A6.731,6.731,0,0,1,68.269,75H6.731A6.731,6.731,0,0,1,0,68.269V6.731A6.731,6.731,0,0,1,6.731,0Z" transform="translate(0 0)" fill="#00c4ff"/>
  <path id="_1" data-name="1" d="M24.984-47.98c.4,0,.441-.079.6-.441l5.533-19.286c.079-.281-.079-.4-.321-.4H25.145a.384.384,0,0,0-.3.082.384.384,0,0,0-.141.278c-1.123,5.01-2,9.379-2.646,12.467h-.079c-.281-1.6-.842-5.291-2.246-12.508-.041-.24-.12-.321-.4-.321H12.877c-.321,0-.4.161-.441.441-1.6,7.256-2.246,10.7-2.571,12.186H9.791c-.281-1.644-.8-4.451-2.486-12.306-.079-.24-.161-.321-.48-.321H.532c-.281,0-.4.161-.321.4L5.261-48.423c.12.321.2.441.643.441h6.332c.24,0,.4-.079.48-.441,1.483-5.533,2.571-10.341,2.966-12.546h.041c.4,2.085,1.082,6.092,2.4,12.546.079.321.161.441.561.441ZM46.627-56.2a34.986,34.986,0,0,0,4.129-.161.429.429,0,0,0,.36-.321,16.687,16.687,0,0,0,.2-2.766A8.484,8.484,0,0,0,48.851-66,8.484,8.484,0,0,0,42.3-68.465c-6.735,0-10.1,5.171-10.1,10.663,0,4.971,2.846,10.142,10.663,10.142a15.615,15.615,0,0,0,6.495-1.123c.2-.12.281-.24.281-.6V-53.8c0-.281-.12-.281-.24-.24a13.9,13.9,0,0,1-4.971.842c-3.448,0-4.929-1.483-5.091-3Zm-7.376-4.451a2.786,2.786,0,0,1,.829-2.046,2.786,2.786,0,0,1,2.057-.8,2.539,2.539,0,0,1,1.925.8,2.539,2.539,0,0,1,.681,1.969,10.318,10.318,0,0,1-1.644.079ZM57.17-47.577a3.84,3.84,0,0,0,2.989-1.129,3.84,3.84,0,0,0,1.1-3,3.915,3.915,0,0,0-1.143-2.946,3.915,3.915,0,0,0-2.946-1.143,3.9,3.9,0,0,0-2.977,1.122,3.9,3.9,0,0,0-1.152,2.966,3.891,3.891,0,0,0,1.134,3,3.891,3.891,0,0,0,3,1.13Z" transform="translate(6.451 97.638)" fill="#fff"/>
  <path id="_2" data-name="2" d="M31.335-65.923c.24,0,.321-.079.321-.441V-91.618c0-.281-.079-.321-.281-.321h-6.3c-.281,0-.4.12-.4.321v9.341H16.262v-9.3c0-.281-.12-.36-.48-.36H9.687c-.321,0-.441.079-.441.4V-66.4c0,.36.12.48.48.48H15.79a.429.429,0,0,0,.358-.122.429.429,0,0,0,.122-.358v-9.981H24.69v10.022c0,.36.12.441.441.441Zm17.959-8.218a34.97,34.97,0,0,0,4.129-.161.429.429,0,0,0,.36-.321,16.688,16.688,0,0,0,.2-2.766,8.484,8.484,0,0,0-2.467-6.553,8.484,8.484,0,0,0-6.553-2.467c-6.735,0-10.1,5.171-10.1,10.663,0,4.971,2.846,10.142,10.663,10.142a15.615,15.615,0,0,0,6.495-1.123c.2-.12.281-.24.281-.6v-4.41c0-.281-.12-.281-.24-.24a13.9,13.9,0,0,1-4.971.842c-3.448,0-4.929-1.483-5.091-3Zm-7.376-4.451a2.786,2.786,0,0,1,.829-2.046,2.786,2.786,0,0,1,2.057-.8,2.539,2.539,0,0,1,1.925.8,2.539,2.539,0,0,1,.681,1.969,10.314,10.314,0,0,1-1.644.079Zm25.536,7.9a5.571,5.571,0,0,1-1.845.281c-1.929,0-2.886-.761-2.886-2.085,0-1.164,1.082-1.965,2.966-1.965a11.086,11.086,0,0,1,1.764.12Zm6.735-7.457c0-4.811-2.846-8.259-8.82-8.259a19.02,19.02,0,0,0-7.054,1.322.469.469,0,0,0-.321.521v4.579c0,.24.2.321.4.24a14.857,14.857,0,0,1,5.533-1.2c2.927,0,3.527,1.322,3.527,1.884v.24c-.4,0-1.322-.041-2.2-.041-5.691,0-9.341,2.325-9.341,6.574,0,4.89,3.889,6.776,8.571,6.776A25.172,25.172,0,0,0,74.222-67.6a.15.15,0,0,0,.12-.161,31.059,31.059,0,0,1-.161-3.366Zm4.369,6.814c0,4.329,2.044,5.814,5.451,5.814a8.124,8.124,0,0,0,3.246-.521c.281-.12.36-.161.36-.521V-70.7c0-.2-.079-.24-.24-.24-.281,0-.643.041-.842.041-.643,0-1-.24-1-1.123V-93.661c0-.321-.12-.4-.441-.4H79c-.36,0-.441.12-.441.4Zm23.331.6c0-.321-.2-.36-.36-.321a4.68,4.68,0,0,1-1.164.161c-1.564,0-2-.643-2-2.357v-7.378h3.328c.24,0,.321-.079.321-.321v-4.77c0-.24-.079-.321-.36-.321H98.359c.041-1.965.12-4.329.2-5.533,0-.321-.12-.321-.321-.281l-5.972.722a.471.471,0,0,0-.4.441c-.24,1.2-.36,3.366-.48,4.65H89.1c-.321,0-.4.12-.4.4v4.609c0,.281.079.36.321.4h2.325v9.06A5.415,5.415,0,0,0,92.9-67.048a5.415,5.415,0,0,0,4.535,1.528,9.838,9.838,0,0,0,4.089-.681.568.568,0,0,0,.36-.6Zm3.043,4.412c0,.281.079.4.36.4h6.294c.24,0,.321-.079.321-.36V-80.073a4.309,4.309,0,0,1,2.445-.761c1.684,0,2.486,1.082,2.486,3v11.505c0,.281.12.4.441.4h6.133c.281,0,.441-.12.441-.4V-77.994c0-6.253-3.448-8.419-7.215-8.419a9.056,9.056,0,0,0-4.729,1.2v-8.539c0-.24-.079-.321-.321-.321H105.3c-.281,0-.36.079-.36.321Zm37.843-5.01c0-.161-.079-.321-.321-.24a9.533,9.533,0,0,1-2.685.321,4.687,4.687,0,0,1-3.788-1.162,4.686,4.686,0,0,1-1.544-3.649,4.611,4.611,0,0,1,1.464-3.61,4.611,4.611,0,0,1,3.706-1.2,10.639,10.639,0,0,1,2.846.36c.2.079.36.041.36-.281l.079-4.729c0-.321-.041-.36-.24-.48a13.563,13.563,0,0,0-3.609-.4c-7.095,0-11.826,4.449-11.826,10.5,0,6.092,4.286,10.382,10.9,10.382a12.621,12.621,0,0,0,4.41-.6c.2-.079.24-.2.24-.441Zm13.95.643a5.571,5.571,0,0,1-1.845.281c-1.929,0-2.886-.761-2.886-2.085,0-1.164,1.082-1.965,2.966-1.965a11.089,11.089,0,0,1,1.764.12Zm6.735-7.457c0-4.811-2.846-8.259-8.82-8.259a19.021,19.021,0,0,0-7.054,1.322.469.469,0,0,0-.321.521v4.575c0,.24.2.321.4.24a14.857,14.857,0,0,1,5.533-1.2c2.927,0,3.527,1.322,3.527,1.884v.24c-.4,0-1.322-.041-2.2-.041-5.691,0-9.341,2.325-9.341,6.574,0,4.89,3.889,6.776,8.571,6.776a25.172,25.172,0,0,0,9.741-2.085.15.15,0,0,0,.12-.161,31.066,31.066,0,0,1-.161-3.366Zm4.5-7.9c-.24,0-.321.079-.321.281.12,1.6.2,3.969.2,5.732v13.669c0,.321.12.441.441.441H174.4c.321,0,.4-.079.4-.4V-77.465a8.786,8.786,0,0,1,6.133-1.884c.321,0,.4-.12.4-.4v-6.294c0-.281-.079-.36-.36-.36a8.556,8.556,0,0,0-6.5,3.366,9.584,9.584,0,0,0-.521-2.571c-.12-.321-.24-.441-.561-.441Zm29.544,11.9a34.973,34.973,0,0,0,4.129-.161.429.429,0,0,0,.36-.321,16.685,16.685,0,0,0,.2-2.766,8.484,8.484,0,0,0-2.467-6.553,8.483,8.483,0,0,0-6.553-2.467c-6.735,0-10.1,5.171-10.1,10.663,0,4.971,2.846,10.142,10.663,10.142a15.615,15.615,0,0,0,6.495-1.123c.2-.12.281-.24.281-.6v-4.41c0-.281-.12-.281-.24-.24a13.9,13.9,0,0,1-4.971.842c-3.448,0-4.929-1.483-5.091-3Zm-7.376-4.451a2.786,2.786,0,0,1,.826-2.04,2.786,2.786,0,0,1,2.049-.8,2.539,2.539,0,0,1,1.925.8,2.539,2.539,0,0,1,.681,1.969,10.318,10.318,0,0,1-1.644.079Z" transform="translate(73.693 115.582)" fill="#192a61"/>
</svg>
